<svg version="1.1" id="レイヤー_1" xmlns="http://www.w3.org/2000/svg" x="0" y="0" viewBox="0 0 14 14" xml:space="preserve"><style>.st0{fill:#fff}</style><path class="st0" d="M7 0C3.1 0 0 3.1 0 7s3.1 7 7 7 7-3.1 7-7c0-3.8-3.1-7-7-7zm2.3 7.5L6.8 10c-.3.3-.8.3-1.1 0-.3-.3-.3-.7 0-1l1.9-2-1.9-2c-.3-.4-.3-.8 0-1 .3-.3.8-.3 1.1 0l2.5 2.5c.1.1.2.3.2.5s-.1.4-.2.5z"/><path class="st0" d="M7 0C3.1 0 0 3.1 0 7s3.1 7 7 7 7-3.1 7-7c0-3.8-3.1-7-7-7zm2.3 7.5L6.8 10c-.3.3-.8.3-1.1 0-.3-.3-.3-.7 0-1l1.9-2-1.9-2c-.3-.4-.3-.8 0-1 .3-.3.8-.3 1.1 0l2.5 2.5c.1.1.2.3.2.5s-.1.4-.2.5z"/></svg>